<svg width="1024" height="1024" viewBox="0 0 1024 1024" xmlns="http://www.w3.org/2000/svg"><g fill="#DCEBDE" stroke="none"><circle cx="515" cy="355" r="245"/><circle cx="355" cy="670" r="250"/><circle cx="665" cy="665" r="235"/></g><g fill="none" stroke="#43A047" stroke-width="2.6" stroke-linecap="round" stroke-linejoin="round" transform="translate(512 505) scale(27) translate(-12 -12)"><path d="M10 16h.01"/><path d="M2.212 11.577a2 2 0 0 0-.212.896V18a2 2 0 0 0 2 2h16a2 2 0 0 0 2-2v-5.527a2 2 0 0 0-.212-.896L18.55 5.11A2 2 0 0 0 16.76 4H7.24a2 2 0 0 0-1.79 1.11z"/><path d="M21.946 12.013H2.054"/><path d="M6 16h.01"/></g><g transform="translate(580 600)"><g><animateTransform attributeName="transform" type="translate" values="0 0; 170 150; 170 150" keyTimes="0; 0.7; 1" calcMode="spline" keySplines="0.4 0 0.6 1; 0.4 0 0.6 1" dur="3s" begin="0s" repeatCount="indefinite"/><rect x="-42" y="-28" width="84" height="56" rx="14" fill="#43A047" stroke="none"><animate attributeName="opacity" values="0; 0.95; 0.95; 0" keyTimes="0; 0.15; 0.7; 1" dur="3s" begin="0s" repeatCount="indefinite"/></rect></g></g><g transform="translate(540 645)"><g><animateTransform attributeName="transform" type="translate" values="0 0; 150 125; 150 125" keyTimes="0; 0.7; 1" calcMode="spline" keySplines="0.4 0 0.6 1; 0.4 0 0.6 1" dur="3s" begin="1s" repeatCount="indefinite"/><rect x="-42" y="-28" width="84" height="56" rx="14" fill="#43A047" stroke="none"><animate attributeName="opacity" values="0; 0.95; 0.95; 0" keyTimes="0; 0.15; 0.7; 1" dur="3s" begin="1s" repeatCount="indefinite"/></rect></g></g><g transform="translate(615 560)"><g><animateTransform attributeName="transform" type="translate" values="0 0; 185 165; 185 165" keyTimes="0; 0.7; 1" calcMode="spline" keySplines="0.4 0 0.6 1; 0.4 0 0.6 1" dur="3s" begin="2s" repeatCount="indefinite"/><rect x="-42" y="-28" width="84" height="56" rx="14" fill="#F5C518" stroke="none"><animate attributeName="opacity" values="0; 0.95; 0.95; 0" keyTimes="0; 0.15; 0.7; 1" dur="3s" begin="2s" repeatCount="indefinite"/></rect></g></g><path d="M11.017 2.814a1 1 0 0 1 1.966 0l1.051 5.558a2 2 0 0 0 1.594 1.594l5.558 1.051a1 1 0 0 1 0 1.966l-5.558 1.051a2 2 0 0 0-1.594 1.594l-1.051 5.558a1 1 0 0 1-1.966 0l-1.051-5.558a2 2 0 0 0-1.594-1.594l-5.558-1.051a1 1 0 0 1 0-1.966l5.558-1.051a2 2 0 0 0 1.594-1.594z" transform="translate(210 770) scale(4.2) translate(-12 -12)" fill="#1b8737" stroke="none"><animate attributeName="opacity" values="1; 0.35; 1" dur="2.4s" repeatCount="indefinite"/></path></svg>